#!OML:ASF H:\Male1\Project 1\Capture day 1\Session 1\Male1.ASF
:FULLY-SPECIFIED
:DEGREES
391
root 16.4074 15.4181 -0.785893 181.108 -73.3139 -184.436
lowerback 4.98861 2.07738 -0.504622
upperback 0.657451 2.69809 -1.00647
thorax -2.09274 1.33827 -0.931063
lowerneck -10.0576 4.11928 6.73455
upperneck 6.65745 4.78201 -2.31644
head 3.83946 2.41868 -1.48661
rclavicle 2.1475e-014 -8.15017e-015
rhumerus -15.973 -29.155 -35.4043
rradius 42.4174
rwrist -35.5844
rhand -30.7167 -6.19897
rfingers 7.12502
rthumb -4.00956 -36.141
lclavicle 2.1475e-014 -8.15017e-015
lhumerus 2.97628 57.8675 11.3408
lradius 22.8198
lwrist -6.84847
lhand -36.9772 26.4569
lfingers 7.12502
lthumb -10.0527 56.1968
rfemur -1.73844 14.9911 22.1914
rtibia 24.3827
rfoot -26.8254 -27.304
rtoes -22.6822
lfemur 5.70658 -13.9658 -24.0985
ltibia 17.8701
lfoot -29.5476 32.3978
ltoes 7.00172
392
root 16.3822 15.4135 -0.780682 181.373 -72.9608 -184.747
lowerback 5.03975 2.08848 -0.483948
upperback 0.558374 2.72002 -0.816212
thorax -2.23124 1.35062 -0.753693
lowerneck -9.84931 4.04224 7.12715
upperneck 6.3604 4.71986 -3.19127
head 3.74257 2.35335 -1.82719
rclavicle -5.01823e-014 7.15625e-015
rhumerus -12.2468 -33.3631 -32.6294
rradius 41.8815
rwrist -36.2617
rhand -34.3392 -7.85281
rfingers 7.12502
rthumb -7.50697 -37.6996
lclavicle -5.01823e-014 7.15625e-015
lhumerus 8.48637 69.1106 15.1321
lradius 21.1448
lwrist -10.981
lhand -39.1598 31.5377
lfingers 7.12502
lthumb -12.1577 61.1644
rfemur -1.7074 15.1402 22.0405
rtibia 24.5221
rfoot -26.8515 -27.1027
rtoes -22.8613
lfemur 5.90243 -13.6843 -24.2931
ltibia 17.8088
lfoot -29.7045 32.4234
ltoes 7.17021
393
root 16.3585 15.4086 -0.77487 181.732 -72.6755 -185.157
lowerback 5.06383 2.11159 -0.420945
upperback 0.449664 2.75972 -0.665212
thorax -2.36065 1.37131 -0.640615
lowerneck -9.53183 4.02304 7.49259
upperneck 6.0688 4.75233 -4.16233
head 3.63648 2.33229 -2.18835
rclavicle -8.79991e-015 9.93923e-017
rhumerus -7.60582 -37.4312 -30.7003
rradius 41.2723
rwrist -36.6135
rhand -37.575 -8.86995
rfingers 7.12502
rthumb -10.6293 -38.5811
lclavicle -8.79991e-015 9.93923e-017
lhumerus 19.9908 76.6674 24.7983
lradius 20.5291
lwrist -13.0194
lhand -41.2745 35.1105
lfingers 7.12502
lthumb -14.1962 64.6054
rfemur -1.68093 15.259 21.8578
rtibia 24.6714
rfoot -26.9191 -26.918
rtoes -22.9518
lfemur 6.06253 -13.3767 -24.4991
ltibia 17.7726
lfoot -29.7743 32.4034
ltoes 7.21062
394
root 16.3363 15.4032 -0.769799 182.068 -72.52 -185.551
lowerback 5.05924 2.14047 -0.268721
upperback 0.325287 2.81164 -0.554101
thorax -2.48395 1.39692 -0.618363
lowerneck -9.12617 4.06787 7.82139
upperneck 5.81487 4.88541 -5.21172
head 3.53619 2.36009 -2.56243
rclavicle 4.63036e-014 -9.64106e-015
rhumerus -2.05494 -41.078 -29.7358
rradius 40.6937
rwrist -36.7894
rhand -40.2175 -9.02515
rfingers 7.12502
rthumb -13.1775 -38.5887
lclavicle 4.63036e-014 -9.64106e-015
lhumerus 35.4484 79.3361 38.334
lradius 20.5748
lwrist -12.8305
lhand -42.6675 36.8492
lfingers 7.12502
lthumb -15.5382 66.245
rfemur -1.62265 15.3531 21.7056
rtibia 24.8091
rfoot -27.0489 -26.8052
rtoes -22.9146
lfemur 6.1751 -13.0579 -24.6632
ltibia 17.7943
lfoot -29.7344 32.3021
ltoes 7.06425
395
root 16.3157 15.3976 -0.767126 182.295 -72.5628 -185.854
lowerback 5.02714 2.15803 -0.00192671
upperback 0.188534 2.85444 -0.480552
thorax -2.59712 1.41618 -0.697103
lowerneck -8.67895 4.18694 8.12754
upperneck 5.64134 5.12847 -6.34116
head 3.46552 2.4416 -2.95108
rclavicle -3.31582e-014 -2.98177e-016
rhumerus 4.24595 -43.9558 -29.7075
rradius 40.3239
rwrist -36.8942
rhand -41.9599 -8.69982
rfingers 7.12502
rthumb -14.8565 -38.1472
lclavicle -3.31582e-014 -2.98177e-016
lhumerus 44.4488 78.3214 45.3014
lradius 20.9506
lwrist -11.483
lhand -42.9446 37.0695
lfingers 7.12502
lthumb -15.805 66.4443
rfemur -1.49104 15.4244 21.6386
rtibia 24.9137
rfoot -27.2548 -26.8253
rtoes -22.7791
lfemur 6.22989 -12.7446 -24.7382
ltibia 17.9036
lfoot -29.5526 32.0847
ltoes 6.68068
396
root 16.2967 15.3916 -0.768466 182.481 -72.8516 -186.141
lowerback 4.96247 2.14642 0.344496
upperback 0.0444543 2.8618 -0.450259
thorax -2.69374 1.41598 -0.860924
lowerneck -8.24106 4.39177 8.43349
upperneck 5.58141 5.49398 -7.56318
head 3.44731 2.58154 -3.36049
rclavicle 5.24605e-014 -5.96354e-016
rhumerus 11.1142 -45.869 -30.4764
rradius 40.2203
rwrist -37.0169
rhand -42.8964 -7.97885
rfingers 7.12502
rthumb -15.7586 -37.3573
lclavicle 5.24605e-014 -5.96354e-016
lhumerus 47.3439 75.3797 45.9927
lradius 21.4023
lwrist -10.3156
lhand -42.4803 36.0597
lfingers 7.12502
lthumb -15.3579 65.4693
rfemur -1.25972 15.4608 21.6527
rtibia 24.9709
rfoot -27.5418 -27.0068
rtoes -22.5756
lfemur 6.21842 -12.4579 -24.7315
ltibia 18.1177
lfoot -29.2088 31.7365
ltoes 6.01409
397
root 16.2793 15.3853 -0.774897 182.665 -73.3945 -186.462
lowerback 4.8559 2.09789 0.729726
upperback -0.098315 2.82052 -0.460755
thorax -2.76262 1.39014 -1.08304
lowerneck -7.83748 4.69778 8.76422
upperneck 5.62263 6.00114 -8.88648
head 3.48794 2.78754 -3.79608
rclavicle -1.35671e-014 -3.97569e-016
rhumerus 18.1737 -46.6664 -31.6965
rradius 40.4756
rwrist -37.158
rhand -43.2582 -7.2106
rfingers 7.12502
rthumb -16.107 -36.5612
lclavicle -1.35671e-014 -3.97569e-016
lhumerus 49.1832 71.4559 45.4181
lradius 21.8381
lwrist -9.81684
lhand -41.8673 34.4015
lfingers 7.12502
lthumb -14.7674 63.8554
rfemur -0.919215 15.4431 21.74
rtibia 24.9802
rfoot -27.9221 -27.3307
rtoes -22.2844
lfemur 6.15183 -12.2206 -24.6557
ltibia 18.4293
lfoot -28.722 31.2681
ltoes 5.03767
398
root 16.2635 15.3785 -0.786772 182.877 -74.163 -186.848
lowerback 4.70453 2.01237 1.10965
upperback -0.233465 2.72756 -0.501769
thorax -2.79941 1.33796 -1.32809
lowerneck -7.47796 5.0927 9.11653
upperneck 5.76758 6.63567 -10.2869
head 3.59207 3.05132 -4.25061
rclavicle 1.33124e-014 -7.95139e-015
rhumerus 25.0905 -46.4082 -33.0389
rradius 41.1328
rwrist -37.2995
rhand -43.2876 -6.43348
rfingers 7.12502
rthumb -16.1353 -35.7818
lclavicle 1.33124e-014 -7.95139e-015
lhumerus 51.5774 67.0179 45.2072
lradius 22.3278
lwrist -9.62635
lhand -41.6454 32.7014
lfingers 7.12502
lthumb -14.5535 62.1709
rfemur -0.482301 15.3453 21.8859
rtibia 24.9502
rfoot -28.3951 -27.7472
rtoes -21.8928
lfemur 6.05022 -12.0545 -24.5281
ltibia 18.8135
lfoot -28.1415 30.7099
ltoes 3.78237
399
root 16.2491 15.3711 -0.80359 183.134 -75.0872 -187.311
lowerback 4.51481 1.901 1.45098
upperback -0.353578 2.59556 -0.565612
thorax -2.80265 1.26652 -1.57096
lowerneck -7.18591 5.56798 9.48086
upperneck 6.00455 7.38583 -11.7134
head 3.76102 3.36634 -4.70649
rclavicle 2.01269e-015 -2.18663e-015
rhumerus 31.6635 -45.2681 -34.3026
rradius 42.1782
rwrist -37.3858
rhand -43.1463 -5.49884
rfingers 7.12502
rthumb -15.9992 -34.8582
lclavicle 2.01269e-015 -2.18663e-015
lhumerus 54.6321 62.3183 45.4826
lradius 22.9155
lwrist -9.24099
lhand -41.9339 30.9135
lfingers 7.12502
lthumb -14.8315 60.3627
rfemur 0.0228807 15.1394 22.0679
rtibia 24.8902
rfoot -28.9221 -28.1876
rtoes -21.4286
lfemur 5.93954 -11.975 -24.3735
ltibia 19.2415
lfoot -27.5511 30.1041
ltoes 2.36872
